<svg width="56" height="55" viewBox="0 0 56 55" fill="none" xmlns="http://www.w3.org/2000/svg">
<path d="M50.5539 26.3661C51.6439 26.6561 51.8939 25.3961 52.5339 25.1861C53.6139 24.8261 53.4939 25.4261 53.9939 25.9061C54.5039 26.3961 55.9539 27.1061 55.1539 27.9861C55.0039 28.1461 54.7639 28.1861 54.6239 28.3561C54.2539 28.7761 53.6439 29.7461 52.9939 29.8061C52.0539 29.8961 51.9639 28.7361 51.3439 28.5561C51.1539 28.4961 49.8939 28.4761 49.8339 28.5261C49.7039 28.6561 49.9039 28.9961 50.0139 29.1561C50.3739 29.7261 51.6439 30.7761 51.6439 31.3161C51.6439 32.1461 49.7739 32.9961 49.3039 33.6661C48.1739 34.2461 47.0039 32.1061 47.1339 31.1361C47.2539 30.2361 48.8039 29.1861 48.9239 28.7661C49.0039 28.4861 48.6339 27.9761 48.4839 27.9761C48.2639 27.9761 48.0739 28.8361 47.8539 28.9761C47.4739 29.2161 46.2439 29.2761 45.7639 29.2461C45.2139 29.2061 44.4939 28.9361 43.9539 28.8861C42.1439 28.7261 39.9939 28.5861 38.1939 28.5061C36.5739 28.4361 34.7139 28.6761 33.1439 28.5061C30.9339 28.2561 31.3039 26.5861 33.3139 26.5161C33.6239 26.5061 33.9039 26.6761 34.0739 26.6661C36.8639 26.5561 39.6939 26.5861 42.5139 26.3361C43.8939 26.2161 45.4939 25.7961 46.8539 25.7861C47.8339 25.7861 48.2739 26.0661 48.2939 27.0761C48.2939 27.3561 47.9739 27.4861 48.5739 27.4261C48.4239 27.0161 48.8239 26.3961 48.7439 26.0961C48.6239 25.6561 47.0439 25.1561 47.1239 24.0861C47.1439 23.8261 47.4339 23.3361 47.5939 23.0961C47.7039 22.9061 48.6739 21.6061 48.7539 21.5461C49.2439 21.2061 49.7839 21.6561 50.1939 21.9261C50.6539 22.2361 51.6939 22.8961 51.7939 23.3861C52.0339 24.4661 50.4439 25.2361 50.5639 26.3361V26.3661H50.5539Z" fill="#D9D9D9"/>
<path d="M39.9939 11.3761C39.8339 11.3461 39.124 10.8861 39.004 11.0161C38.884 11.1361 38.8339 12.0861 38.6839 12.4161C38.5339 12.7561 38.194 12.9261 38.014 13.1961C36.444 15.5961 33.814 20.9761 31.594 22.4761C31.014 22.8661 30.544 22.8161 30.784 22.0261C31.274 20.4161 32.624 18.8061 33.264 17.2861C34.064 15.3961 34.8039 13.3661 35.8539 11.5761C35.9639 11.3761 36.684 10.3061 36.764 10.2961C37.284 10.2161 38.7539 10.7561 38.8239 10.6661C38.8539 10.6361 38.9639 9.90612 38.9639 9.81612C38.9639 9.40612 38.6639 9.14612 38.9939 8.60612C39.1139 8.41612 40.2639 7.99612 40.5439 7.95612C41.6639 7.81612 42.194 8.07611 42.644 9.08611C43.024 9.94611 42.874 10.2961 42.974 11.1061C43.044 11.7161 43.894 10.6561 44.014 10.3461C44.374 9.43612 43.704 8.78611 44.784 8.04611C45.614 7.48611 45.9739 7.89612 46.6839 7.94612C47.0539 7.97612 47.674 7.50612 47.944 7.94612C48.274 8.47612 48.054 10.6961 47.624 11.1661C47.064 11.7861 46.224 11.4161 45.624 11.5961C45.514 11.6261 44.804 12.1261 44.784 12.1961C44.634 12.7261 45.7039 12.8361 45.9939 12.9661C46.6339 13.2561 47.574 13.6261 47.664 14.3661C47.804 15.4661 47.604 17.2961 46.144 17.1561C46.004 17.1461 44.514 16.6461 44.444 16.5861C44.244 16.4261 44.124 14.9561 44.014 14.5761C43.984 14.4561 43.7139 13.7661 43.6839 13.7261C43.4839 13.5061 42.634 14.1761 42.424 14.3561C40.794 15.7161 39.534 17.6561 37.914 19.0561C37.274 19.3561 36.4639 19.0961 36.4639 18.3361C36.4639 17.7661 38.214 16.1761 38.624 15.6261C39.584 15.0361 40.294 14.0961 41.054 13.3661C41.664 12.7861 42.684 12.3661 42.774 11.3861C41.924 11.2861 40.784 11.5261 39.974 11.3861H39.9939V11.3761Z" fill="#D9D9D9"/>
<path d="M28.7039 4.69613C29.0639 5.06613 30.3539 3.79613 30.6339 3.64613C32.2339 2.83613 32.4639 4.40613 33.4839 5.23613C33.6339 5.53613 33.6339 6.02613 33.4839 6.32613C33.4039 6.49613 31.8439 7.68613 31.6439 7.73613C30.9639 7.93613 30.6639 7.48613 30.1539 7.30613C29.2839 6.99613 29.7139 7.43613 29.7039 7.85613C29.5739 11.9361 28.6339 15.1561 28.8839 19.4061C28.9339 20.2461 28.9739 22.6861 27.7039 22.5861C27.3139 22.5561 27.1239 22.0861 27.0739 21.7561C26.8339 20.0961 27.1439 17.7461 27.0739 15.9761C27.0039 13.8861 26.7039 11.7561 26.5139 9.67613C26.4339 8.77613 26.0339 7.73613 26.6239 6.87613C26.7239 6.73613 27.0639 6.46613 27.0639 6.41613C27.0639 6.04613 26.2039 6.13613 25.9139 6.31613C25.7439 6.42613 25.7539 6.63613 25.6239 6.77613C25.2139 7.21613 24.2339 8.18613 23.6239 7.86613C23.1939 7.29613 21.5539 6.45613 21.6339 5.69613C21.6739 5.31613 23.2039 3.37613 23.5639 3.26613C23.9439 3.15613 24.1039 3.51613 24.4039 3.65613C25.1439 3.99613 25.3439 4.16613 25.9839 4.59613C26.5739 4.99613 27.0939 4.87613 26.8539 4.08613C26.7239 3.64613 25.1239 3.05613 25.2739 2.29613C25.4539 1.37613 27.2039 -0.263867 28.2039 0.036133C28.7639 0.196133 29.0139 0.776133 29.3239 1.08613C29.4839 1.24613 29.7139 1.29613 29.8539 1.45613C31.1339 2.90613 29.2239 3.06613 28.7739 3.97613C28.6939 4.14613 28.6239 4.63613 28.6839 4.69613H28.7039Z" fill="#D9D9D9"/>
<path d="M6.81391 25.9561C6.74391 26.0461 6.49392 26.0561 6.33392 26.2861C6.19392 26.5061 5.70392 27.8261 6.22392 27.8061C6.53392 27.8061 6.66392 26.3161 7.02392 26.0861C7.15392 26.0061 7.80392 25.9161 8.02392 25.9061C9.47392 25.8061 10.4639 26.2361 11.8239 26.3561C13.9439 26.5461 16.0339 26.4261 18.1239 26.5561C19.1839 26.6161 20.2239 26.2261 21.3739 26.3761C21.6339 26.4061 22.5239 26.7061 22.6539 26.9061C23.1139 27.6061 22.4239 28.4261 21.7139 28.5061C21.5239 28.5261 21.2739 28.3561 21.0239 28.3461C19.0139 28.3061 16.6039 28.0161 14.6939 28.1661C12.6839 28.3261 10.4139 28.9861 8.38392 29.0861C7.68392 29.1161 6.34391 28.1661 6.12391 28.3461C5.83391 28.5961 8.18391 30.3161 8.12391 30.9661C8.10391 31.1461 7.05391 32.7261 6.85391 32.9561C5.71391 34.2761 5.51391 33.2761 4.59391 32.5061C4.33391 32.2861 3.51391 31.9061 3.43391 31.6761C3.17391 30.8461 3.90391 30.6061 4.29391 30.0461C4.43391 29.8461 5.01392 28.6961 4.86392 28.5361C4.40392 28.0661 3.33392 30.0861 2.64392 29.9561C2.13392 29.8561 -0.106084 27.8961 0.00391567 27.3761C0.00391567 27.3261 0.553911 26.6261 0.623911 26.5461C0.803911 26.3561 1.06392 26.2861 1.25392 26.0961C1.77392 25.5661 1.99391 24.7361 2.87391 25.1861C3.30391 25.4061 3.72392 26.3061 3.94392 26.4661C4.08392 26.5661 4.63391 26.5961 4.67391 26.5461C5.11391 26.1061 3.64391 24.3761 3.49391 23.8461C3.24391 22.9961 4.42391 22.7061 5.03391 22.2961C5.93391 21.6961 5.95392 20.9161 7.02392 22.1161C7.21392 22.3361 8.28391 23.7761 8.29391 23.9261C8.35391 24.6061 7.64391 24.7361 7.29391 25.1061C7.09391 25.3161 6.96391 25.7261 6.78391 25.9561H6.81391Z" fill="#D9D9D9"/>
<path d="M29.2139 48.1761C28.8639 48.5261 27.9639 48.2961 27.5439 48.3961C27.1239 48.4961 27.3439 48.8561 27.6239 49.0261C27.6839 49.0561 28.5539 48.9061 28.7239 48.8461C29.5339 48.5661 29.9939 47.8161 30.5239 47.3961C31.5339 46.5961 32.2739 47.0961 33.1439 47.8461C33.7039 48.3261 33.8939 48.5861 33.7739 49.3861C33.7439 49.5561 33.0539 50.4461 32.8739 50.6461C32.1339 51.4661 31.7739 51.4361 30.7539 50.9561C30.2639 50.7261 29.6739 49.9161 29.0739 50.2861C28.6839 50.5261 29.3039 51.4461 29.5239 51.6461C29.9339 52.0361 30.4639 51.9661 30.3439 52.8161C30.2839 53.2561 28.7739 54.6361 28.2539 54.7061C27.2539 54.8461 27.0939 54.1661 26.4539 53.6261C25.7739 53.0661 24.8239 53.0661 25.6339 52.0861C25.9739 51.6761 26.4939 51.5361 26.8039 51.0861C27.3339 50.3261 27.1939 49.8861 26.2939 50.3961C25.6239 50.7761 25.5539 51.2961 24.4939 51.0561C23.8439 50.9161 23.8039 50.4461 23.4739 50.0961C23.1439 49.7461 22.0439 48.9261 22.4039 48.3961C22.4439 48.3461 23.3439 47.9261 23.5339 47.8161C24.0539 47.5161 24.3939 47.0061 25.1839 47.1061C25.4339 47.1361 25.9739 47.7061 26.1739 47.4761C26.2139 47.4261 26.5039 46.4661 26.5339 46.2961C26.7839 44.9161 27.0139 42.8261 27.0839 41.4361C27.2139 38.9961 26.7439 35.7661 27.0839 33.4861C27.2539 32.3461 28.3239 31.7061 28.5239 33.1261C28.8339 35.3161 28.3439 38.2261 28.5239 40.5361C28.6839 42.5661 29.2839 44.7961 29.4439 46.8461C29.4739 47.1761 29.4439 47.9561 29.2239 48.1761H29.2139Z" fill="#D9D9D9"/>
<path d="M12.2739 10.1161C12.4039 9.92612 12.4039 8.89612 12.4839 8.60612C12.5339 8.44612 12.9539 8.02612 13.1139 7.97612C13.6739 7.80612 15.8939 8.33612 16.1639 8.84612C16.3439 9.17612 15.9339 10.6061 15.7139 10.9361C15.2439 11.6461 14.6339 11.4661 13.9839 11.5561C13.0239 11.6861 14.0239 12.1161 14.2639 12.3661C14.5539 12.6661 14.8539 13.3461 15.1539 13.6461C16.2439 14.7561 17.3639 15.7161 18.5039 16.8061C18.6839 16.9761 18.9639 17.0461 19.1439 17.2461C20.1439 18.3361 19.5139 19.7161 18.2339 19.0661C17.8439 18.8661 16.6339 17.4161 16.1639 16.9861C15.5239 16.3961 14.8339 15.9261 14.1739 15.3661C13.8239 15.0761 12.3739 13.6461 12.1739 13.5761C11.4939 13.3161 11.7939 14.1861 11.7039 14.6961C11.6339 15.0661 11.4039 15.6861 11.0839 15.8861C10.8439 16.0461 9.45388 16.2961 9.11388 16.2861C8.83388 16.2761 8.37388 16.1361 8.21388 15.9161C7.94388 15.5361 7.63388 13.6261 7.85388 13.2061C7.99388 12.9361 9.05389 12.4861 9.38389 12.3861C9.98389 12.2061 10.4039 12.5661 10.2939 11.8561C10.2739 11.7361 9.94388 11.6761 9.79388 11.6361C8.48388 11.2561 7.97388 11.7061 7.81388 10.0161C7.79388 9.83612 7.93388 9.67612 7.93388 9.50612C7.93388 9.01612 7.64388 8.79612 8.04388 8.15612C8.37388 7.63612 10.0939 7.68612 10.6639 7.86612C11.8239 8.24612 11.0739 9.35612 11.6439 9.95612C11.8239 10.1361 12.2139 10.2261 12.2739 10.1361V10.1161Z" fill="#D9D9D9"/>
<path d="M46.904 41.8462C46.364 42.4162 45.554 42.1762 44.874 42.2562C44.324 42.3162 43.924 42.5462 44.504 42.9762C45.344 43.6162 47.524 42.2762 47.504 44.5062C47.504 44.8862 47.3439 45.1262 47.3239 45.4162C47.2539 46.0662 47.514 46.8462 46.774 47.2162C46.194 47.5062 45.824 47.1262 45.414 47.1362C45.194 47.1362 44.974 47.3262 44.704 47.3162C44.344 47.2962 43.464 46.6162 43.374 46.2862C43.214 45.7562 43.904 44.4162 42.904 44.4062C42.174 44.4062 42.584 46.0062 42.094 46.4962C41.764 46.8262 39.774 46.8662 39.314 46.7362C38.154 46.3962 38.7239 44.5562 39.2139 43.8062C39.5339 43.3162 41.024 43.4562 41.364 43.1562C41.884 42.6862 39.674 41.0162 39.374 40.7262C38.724 40.1062 37.734 38.7662 37.234 37.9862C36.664 37.1062 36.234 36.1762 37.754 36.3862C39.104 37.5662 40.374 38.8062 41.634 40.0862C41.964 40.4262 42.4839 41.3462 43.0739 41.3662C43.6939 41.3862 43.6039 40.1062 43.7439 39.6762C43.9639 38.9862 46.194 38.1762 46.784 38.3662C47.684 38.6462 47.644 39.9162 47.474 40.6962C47.454 40.8062 46.974 41.8162 46.924 41.8662L46.904 41.8462Z" fill="#D9D9D9"/>
<path d="M7.7839 46.5662C7.7239 46.5062 7.7439 45.1262 7.7839 44.8762C7.8139 44.6362 8.22389 43.4962 8.35389 43.3662C8.71389 43.0062 9.9239 43.3362 10.3039 42.6962L9.0939 42.2862C7.9439 41.9062 8.55389 39.1362 9.49389 38.9962C9.74389 38.9562 10.1539 38.9662 10.3939 38.9962C10.5539 39.0162 11.6539 39.5062 11.7139 39.5662C12.0639 39.9062 11.7739 41.3362 12.2039 41.3362C12.4839 41.3362 14.6839 39.0162 15.0939 38.6262C15.7639 37.9762 16.4839 37.1862 17.1639 36.5562C17.6939 36.0662 18.4839 35.1962 19.2439 35.1862C19.8939 35.1862 19.9939 35.5362 19.7939 36.1162C19.7239 36.3262 18.9939 37.2262 18.7939 37.4662C18.0139 38.3562 17.0639 38.9962 16.1739 39.9062C15.6939 40.4062 13.3839 42.1862 13.3739 42.6962C13.3639 43.2062 14.9539 42.6562 15.3339 43.2562C15.7539 43.9062 15.4039 44.1562 15.3639 44.6862C15.2939 45.4962 15.6539 46.2362 14.5439 46.3862C14.2439 46.4262 13.9339 46.3662 13.6339 46.3862C13.1939 46.4162 13.0439 46.6862 12.5839 46.3862C12.0239 46.0062 12.1039 45.5362 12.2039 44.9662C12.3639 44.0162 11.8739 44.1662 11.5339 44.8362C11.2639 45.3562 11.2439 46.2462 10.7439 46.5762C10.3039 46.8562 9.1339 47.0462 8.6239 46.9262C8.5339 46.9062 7.8239 46.6162 7.7939 46.5862H7.7839V46.5662Z" fill="#D9D9D9"/>
<path d="M24.3439 22.3661C24.3439 22.3661 23.9439 22.5461 23.9139 22.5461C23.8439 22.5461 23.1239 21.8161 23.0239 21.6661C22.7339 21.2561 22.6839 20.7661 22.4739 20.4161C20.8139 17.6661 18.7539 15.0361 17.1139 12.2261C16.4039 11.0161 15.9639 10.3161 17.3339 9.49612C19.5539 8.17612 19.3039 9.10612 19.9339 10.8461C21.1739 14.2361 22.7039 17.2861 24.1439 20.5461C24.3439 21.0061 24.7239 21.9961 24.3339 22.3761L24.3439 22.3661Z" fill="#D9D9D9"/>
<path d="M10.6039 16.6362C11.3739 16.4962 12.9139 17.7062 13.6039 18.0962C16.0039 19.4362 18.6639 20.7762 20.7739 22.4762C21.1839 22.8062 22.4339 23.2562 22.2039 24.0962C21.9939 24.8762 20.5339 23.8462 20.0939 23.6962C18.8339 23.2562 18.8639 23.2562 17.7639 22.5962C15.7139 21.3762 12.3539 20.9362 10.0539 19.6462C9.37393 19.2662 8.89393 19.0062 9.02393 18.1362C9.08393 17.7662 10.2039 16.6962 10.5939 16.6262H10.6039V16.6362Z" fill="#D9D9D9"/>
<path d="M31.4039 32.1562C31.4039 32.1562 31.5339 32.6462 31.6939 32.8562C32.4139 33.8462 33.1839 34.4762 33.8639 35.5662C35.2539 37.7962 36.8139 39.9962 38.1239 42.3162C38.3339 42.6862 39.0939 43.3962 38.7439 43.8862C38.6439 44.0162 36.7239 45.2662 36.5339 45.2962C36.3139 45.3362 35.8739 45.2162 35.7439 45.0262C35.2639 44.2762 34.9839 42.7462 34.6339 41.8362C33.7739 39.6362 32.8839 37.1362 31.8239 35.0762C31.5739 34.5962 30.0939 32.5362 30.5239 32.1362C30.5539 32.1062 31.3739 32.1162 31.4139 32.1562H31.4039Z" fill="#D9D9D9"/>
<path d="M43.274 16.4661C43.594 16.3661 43.8939 16.3961 44.1539 16.6061C44.2839 16.7061 44.8739 17.8261 44.9239 18.0061C45.3639 19.4761 43.6839 19.5661 42.7839 19.9561C39.7539 21.2861 36.8039 22.7661 33.8139 24.1661C33.4939 24.3161 32.3639 25.2761 32.1439 24.4661C31.9439 23.7161 32.7539 23.5961 33.0339 23.3861C36.1039 21.1261 38.3939 19.3861 41.7639 17.4961C42.1639 17.2761 42.944 16.5661 43.274 16.4761V16.4661Z" fill="#D9D9D9"/>
<path d="M21.2439 30.3662C21.7039 30.2662 22.3739 30.3262 22.1839 30.9462C21.0239 32.0262 19.784 33.0362 18.474 33.9162C16.144 35.0062 13.814 37.2362 11.504 38.3162C10.894 38.6062 10.6539 38.7862 10.2139 38.2662C8.05395 35.7262 10.544 35.5262 12.414 34.7062C13.654 34.1562 14.934 33.5862 16.014 32.8862C16.634 32.4862 17.264 32.4462 17.834 32.1762C18.754 31.7362 20.354 30.5662 21.254 30.3662H21.2439Z" fill="#D9D9D9"/>
<path d="M24.5539 32.3161C24.5539 32.3161 24.6639 32.8961 24.6639 32.9461C24.6239 33.6861 24.0539 34.1461 23.7539 34.6661C22.2339 37.2261 20.9739 40.0361 19.7839 42.7861C19.5839 43.2361 18.7939 45.1961 18.4939 45.2861C17.8539 45.4861 16.2939 44.7461 16.1039 44.1061C15.9939 43.7261 16.1039 43.3961 16.2839 43.0761C17.0939 41.6161 18.5139 39.9461 19.4839 38.5161C20.3439 37.2361 21.0239 35.8261 22.0339 34.5661C22.5039 33.9861 23.3639 32.9161 23.9239 32.4861C24.0939 32.3561 24.4739 32.2061 24.5639 32.3061L24.5539 32.3161Z" fill="#D9D9D9"/>
<path d="M32.5039 30.1562C32.9739 29.6762 34.6439 30.9462 35.1639 31.1962C36.2139 31.7062 37.3939 31.9562 38.2239 32.8262L44.6539 35.0662C45.7439 35.3962 44.5339 37.2262 44.0539 37.6462C43.2839 38.3162 42.9639 37.6062 42.4239 37.2962C39.4039 35.5362 36.5939 34.0062 33.7639 31.8762C33.3239 31.5462 32.8139 31.5562 32.5839 30.8862C32.5239 30.7162 32.4339 30.2262 32.5039 30.1562Z" fill="#D9D9D9"/>
<path d="M27.5739 25.1362C28.1739 25.0462 28.8539 25.2762 29.3439 25.6462C30.2639 26.3362 30.7539 28.1362 29.7939 28.9862C29.3139 29.4162 27.8939 29.9162 27.2539 29.7162C24.9639 28.9962 25.0939 25.5262 27.5739 25.1362Z" fill="#D9D9D9"/>
</svg>
